# xmcd
#
# Track frame offsets: 
#        182
#        18690
#        39542
#        59675
#        81422
#        110190
#        126095
#        144557
#        162535
#        183765
#        201667
#        222817
#        242937
#        263152
#        286962
#
# Disc length: 4045 seconds
#
# Revision: 2
# Processed by: cddbd v1.5.2PL0 Copyright (c) Steve Scherf et al.
# Submitted via: ExactAudioCopy v0.99pb3
#
DISCID=f20fcb0f
DTITLE=Various Artist - Mississippi Burnin' Blues
DYEAR=1993
DGENRE=
TTITLE0=Sweet Miss Coffy - Pistol, Knife and Razor Too!
TTITLE1=Sweet Miss Coffy - Broken-Hearted Woman
TTITLE2=Sweet Miss Coffy - I'd Rather Drink Muddy Water
TTITLE3=Cadillac George Harris - Using Me To Hurt Him
TTITLE4=Cadillac George Harris - Feel Like Breaking Up Somebody's Home
TTITLE5=Cadillac George Harris - Dangerous Woman
TTITLE6=Cadillac George Harris - That's Alright
TTITLE7=George Jackson - I Want That Love Back
TTITLE8=George Jackson - Strugglin' Lady
TTITLE9=George Jackson - Heart To Heart Collect
TTITLE10=George Jackson - Lonely Women
TTITLE11=Sweet Miss Coffy - If It's Love That You're Trying To Fight
TTITLE12=Sweet Miss Coffy - I've Been Watching You
TTITLE13=Sweet Miss Coffy - Baby Don't Do It
TTITLE14=Sweet Miss Coffy - Back In The Streets Again
EXTD=
EXTT0=
EXTT1=
EXTT2=
EXTT3=
EXTT4=
EXTT5=
EXTT6=
EXTT7=
EXTT8=
EXTT9=
EXTT10=
EXTT11=
EXTT12=
EXTT13=
EXTT14=
PLAYORDER=
